<svg id="INGLO__White_reflection" data-name="INGLO _White_reflection" xmlns="http://www.w3.org/2000/svg" xmlns:xlink="http://www.w3.org/1999/xlink" width="577.93" height="175.796" viewBox="0 0 577.93 175.796">
  <defs>
    <linearGradient id="linear-gradient" x1="0.5" y1="1" x2="0.5" gradientUnits="objectBoundingBox">
      <stop offset="0" stop-color="#fff" stop-opacity="0"/>
      <stop offset="1" stop-color="#fff" stop-opacity="0.2"/>
    </linearGradient>
  </defs>
  <path id="Path_604" data-name="Path 604" d="M1043.057,76.911V0H1032.07V87.9h61.5l10.987-10.987Z" transform="translate(-654.083)" fill="#fff"/>
  <path id="Path_605" data-name="Path 605" d="M793.177,80A24.751,24.751,0,0,1,817.9,104.721v41.2H806.911v-41.2a13.749,13.749,0,0,0-13.734-13.734H740.987V167.9H730V80Z" transform="translate(-655.287 -80)" fill="#fff"/>
  <path id="Path_606" data-name="Path 606" d="M1927.494,80h-38.272a24.751,24.751,0,0,0-24.721,24.721v38.455a24.751,24.751,0,0,0,24.721,24.721h38.272a24.75,24.75,0,0,0,24.721-24.721V104.721A24.75,24.75,0,0,0,1927.494,80Zm13.734,46.146v17.03a13.749,13.749,0,0,1-13.734,13.734h-38.272a13.749,13.749,0,0,1-13.734-13.734V104.721a13.749,13.749,0,0,1,13.734-13.734h38.272a13.749,13.749,0,0,1,13.734,13.734Z" transform="translate(-1374.285 -80)" fill="#fff"/>
  <rect id="Rectangle_649" data-name="Rectangle 649" width="10.499" height="87.138" transform="translate(0.511 0.471)" fill="#fff"/>
  <rect id="Rectangle_650" data-name="Rectangle 650" width="10.499" height="10.499" transform="translate(151.689 77.11)" fill="#fff"/>
  <path id="Path_607" data-name="Path 607" d="M1231.872,119.554h-43.986v10.987h33.094v12.536a13.749,13.749,0,0,1-13.734,13.734h-38.525a13.749,13.749,0,0,1-13.734-13.734V104.721a13.749,13.749,0,0,1,13.734-13.734h38.942L1218.651,80h-49.93A24.751,24.751,0,0,0,1144,104.721v38.356a24.751,24.751,0,0,0,24.721,24.721h38.525a24.751,24.751,0,0,0,24.721-24.721V119.554Z" transform="translate(-917.662 -80)" fill="#fff"/>
  <path id="Path_608" data-name="Path 608" d="M914.971,330.987V407.9H903.983V320H965.49l10.987,10.987ZM663.89,407.9a24.751,24.751,0,0,0,24.721-24.721v-41.2H677.624v41.2a13.749,13.749,0,0,1-13.734,13.734H611.7V320H600.713v87.9Zm415.318,0h-38.272a24.751,24.751,0,0,1-24.721-24.721V344.721A24.751,24.751,0,0,1,1040.936,320h38.272a24.751,24.751,0,0,1,24.721,24.721v38.455A24.751,24.751,0,0,1,1079.208,407.9Zm13.734-46.146v-17.03a13.749,13.749,0,0,0-13.734-13.734h-38.272a13.749,13.749,0,0,0-13.734,13.734v38.455a13.749,13.749,0,0,0,13.734,13.734h38.272a13.749,13.749,0,0,0,13.734-13.734ZM536.987,320H526v87.9h10.987Zm151.624,0H677.624v10.987h10.987Zm151.694,48.344V344.82A24.751,24.751,0,0,0,815.584,320.1H777.059a24.751,24.751,0,0,0-24.721,24.721v38.357A24.751,24.751,0,0,0,777.059,407.9h49.93L816,396.911H777.059a13.749,13.749,0,0,1-13.734-13.734V344.82a13.749,13.749,0,0,1,13.734-13.734h38.525a13.749,13.749,0,0,1,13.734,13.734v12.536H796.224v10.987Z" transform="translate(-526 -232.102)" fill="url(#linear-gradient)"/>
</svg>
