<svg title="Mahindra" xmlns="http://www.w3.org/2000/svg" xmlns:xlink="http://www.w3.org/1999/xlink" width="647" height="94" viewBox="0 0 647 94" style="enable-background:new 0 0 647 94"><g><path style="fill:#fff" d="M485.6 45.9h36.6c8.3.0 15.1 6.5 15.1 14.6v33.3h-54.7c-5.1.0-9.2-4-9.2-8.9.0-3.9.0-7.7.0-11.6.0-4.5 3.8-8.2 8.6-8.2h30.4l-3.2 6.7h-22.3c-1 0-2.1.7-2.1 1.8.0 3 0 6.1.0 9.1.0 1 1.1 1.8 2.1 1.8h38.7V62.7c0-4.2-3.8-7.5-8-7.5h-36.3L485.6 45.9zM266.5 35.5v-7.1h-11.8v13.8l11.8-6.7zM254.7 49l11.8-6.7v51.6h-11.8V49zm71.4-3.1c8.3.0 15.1 6.5 15.1 14.6v33.3h-11.8c0-10.4.0-20.8.0-31.1.0-4.2-3.8-7.5-8-7.5H293v38.6h-11.8V46C296.1 46 311.1 45.9 326.1 45.9zm151.3.0h-29.7c-8.3.0-15.1 6.5-15.1 14.6v33.3h11.8c0-10.4.0-20.8.0-31.1.0-4.2 3.8-7.5 8-7.5h20.5l4.5-9.3zM80.4 93.8h11.8c0-11.1.0-22.2.0-33.3.0-8-6.8-14.6-15.1-14.6-23.3.0-54.2.0-77.5.0v47.9h11.8V57c0-1 1.1-1.8 2.1-1.8 6.9.0 17.5.0 24.4.0 1 0 2.1.7 2.1 1.8v36.8h11.8V57c0-1 1.1-1.8 2.1-1.8 4.9.0 13.6.0 18.5.0 4.2.0 8 3.2 8 7.5V93.8zM179 28.5v65.3h11.8v0V28.5H179zm49.2 65.3H240c0-11.1.0-22.2.0-33.3.0-8-6.8-14.6-15.1-14.6h-25.1l-4.5 9.3h24.9c4.2.0 8 3.2 8 7.5V93.8zM415.7 28.5v65.3h-53.4c-5.1.0-9.2-4-9.2-8.9.0-8.2.0-16.3.0-24.5.0-8 6.8-14.6 15.1-14.6h30.4l-4.5 9.3h-21.2c-4.2.0-8 3.2-8 7.5.0 6.7.0 13.4.0 20.1.0 1 1.1 1.8 2.1 1.8h36.9v-56h11.8zM114.9 45.9h36.6c8.3.0 15.1 6.5 15.1 14.6v33.3h-54.7c-5.1.0-9.2-4-9.2-8.9.0-3.9.0-7.7.0-11.6.0-4.5 3.8-8.2 8.6-8.2h30.4l-3.2 6.7h-22.3c-1 0-2.1.7-2.1 1.8.0 3 0 6.1.0 9.1.0 1 1.1 1.8 2.1 1.8h38.7V62.7c0-4.2-3.8-7.5-8-7.5h-36.3l4.3-9.3z"></path><path style="fill:#fff" d="M617.6 22.7v-.3c.3-1.6.6-3.1 1-4.5.5-1.4 1.1-2.6 1.9-3.7.9-1.1 1.9-1.9 3.3-2.5s3-.9 5-.9h4.2.9l.9.1c.9.1 1.7.4 2.5.8s1.5.8 2 1.4c.6.6 1.1 1.3 1.5 2.1.3.7.5 1.6.5 2.5v.6l-.1.6c-.2 1.4-.6 2.6-1 3.5-.4 1-1 1.7-1.7 2.2s-1.5.9-2.5 1.1c-1 .2-2 .3-3.3.3h-9.6c-.1 1-.2 1.9-.2 2.6.0.8.1 1.4.4 1.9s.8.9 1.6 1.1c.8.3 2 .4 3.5.4H639l-2.7 4.5h-10.7c-3.4.0-5.6-.9-6.9-2.4s-1.7-3.5-1.7-5.7c0-.9.1-1.9.2-2.8C617.3 24.7 617.4 23.7 617.6 22.7m-41.4-9.2 6.8-3.9-4 26.8h-6.5l.6-3.8c1-6.3 1.9-12.5 2.8-18.7v-.2L576.2 13.5zm2-10.3h5.9l-.5 3.4-7.2 4.1 1.1-7.5H578.2zM611.3 12.4l-2 3.3h-9.6-1l-1 .1c-.3.0-.6.1-.8.2-.2.1-.4.2-.6.3-.1.1-.3.3-.4.4-.1.2-.2.4-.3.7-.1.2-.1.5-.1.7s0 .4.1.6c.1.2.2.4.4.6.2.2.4.3.7.4.3.1.6.3 1 .4l8.9 2.1c1 .2 2 .6 2.8 1.1s1.5 1.1 2 1.8.8 1.5 1 2.4.1 1.8.0 2.8c-.2 1.2-.6 2.2-1.1 3s-1.2 1.4-1.9 1.9c-.8.5-1.6.8-2.5 1s-1.9.3-3 .3h-17.3l2.7-4.4h11.2c.7.0 1.5.0 2.1-.1s1.2-.2 1.7-.3c.4-.2.8-.4 1.1-.8.3-.4.5-.9.7-1.7.1-.5.0-.9-.1-1.2-.2-.3-.4-.6-.7-.8-.4-.3-.8-.5-1.3-.6-.5-.2-1-.3-1.5-.4l-7.8-1.8c-1-.2-1.8-.6-2.6-1-.7-.4-1.4-1-1.8-1.6-.5-.6-.8-1.4-.9-2.2s-.1-1.6.0-2.6c.2-1.1.5-2 1-2.8s1.1-1.3 1.8-1.8c.7-.4 1.5-.7 2.3-.9.9-.2 1.8-.3 2.8-.3h15L611.3 12.4zM558.2 36l-7.4-14.5h-7.1l-2.2 14.9H535l.9-6c1.5-9.9 3-19.8 4.5-29.6v-.3h18 1l1 .1c1.2.2 2.2.5 3.1 1s1.7 1.1 2.4 1.9c.6.8 1.1 1.6 1.4 2.6s.5 2 .5 3.1v1l-.1 1c-.3 1.8-.8 3.3-1.5 4.4-.7 1.2-1.6 2.1-2.6 2.8-.9.6-2 1.1-3.1 1.4-.9.3-2 .5-3 .7l8.5 15.8h-7.4L558.2 36zM555.8 5.3H546L544.3 17h7.6c1.2.0 2.3-.1 3.3-.3s2-.5 2.8-1c.8-.4 1.5-1 2-1.8s.9-1.8 1.1-3c.2-1.1.2-2 0-2.7-.1-.7-.4-1.3-.9-1.7-.4-.4-1-.8-1.8-1C557.9 5.4 556.9 5.3 555.8 5.3zM631.1 15.4h-2.3c-2 0-3.2.7-3.8 1.9-.7 1.1-.9 2.7-1.2 4.5h7.8c.4.0.9-.1 1.2-.2.3-.1.6-.3.9-.5s.5-.6.7-1 .4-.9.4-1.5c.1-.7.1-1.3.0-1.7s-.3-.7-.6-.9c-.3-.2-.8-.4-1.3-.5C632.5 15.4 631.8 15.4 631.1 15.4z"></path></g></svg>
   